<svg width="70" height="21" viewBox="0 0 70 21" fill="none" xmlns="http://www.w3.org/2000/svg">
<path d="M29.785 9.00244C30.3348 9.02779 30.8671 9.22064 31.3143 9.55908C31.7688 9.9243 32.0243 10.4959 31.9989 11.0913C32.0125 11.5896 31.8744 12.0801 31.6044 12.4927C31.3244 12.8913 30.9523 13.2111 30.5223 13.4224C30.0101 13.6759 29.4636 13.8481 28.9022 13.9351C28.2376 14.0451 27.5654 14.0986 26.8924 14.0933C26.8907 14.2728 26.9216 14.4509 26.9833 14.6187C27.0477 14.7778 27.1528 14.9162 27.288 15.0171C27.4574 15.1389 27.6489 15.2247 27.8505 15.27C28.1408 15.3367 28.4379 15.3682 28.7352 15.3628C29.1351 15.3657 29.534 15.32 29.9237 15.2271C30.1924 15.1689 30.4559 15.0864 30.7108 14.981L30.3124 16.6929C30.1641 16.7417 30.0004 16.7873 29.826 16.8325C29.3437 16.9479 28.8494 17.0034 28.3544 16.9985C27.8342 17.0089 27.3159 16.9279 26.8221 16.7583C26.4298 16.6235 26.0718 16.3985 25.7753 16.1001C25.5073 15.8184 25.3047 15.4771 25.1835 15.1021C25.0565 14.6933 24.9952 14.2658 25.0008 13.8364C25.0009 13.2155 25.1051 12.5989 25.3094 12.0151C25.5039 11.4424 25.8088 10.9166 26.2049 10.4692C27.0101 9.56467 28.131 9.03774 29.3114 9.00244H29.785ZM29.1854 10.5894C28.6871 10.5956 28.2049 10.7743 27.8153 11.0962C27.3802 11.4362 27.0785 11.9791 26.911 12.7241C27.4535 12.7348 27.9963 12.692 28.5311 12.5972C28.8759 12.5389 29.2109 12.428 29.5243 12.2681C29.7261 12.1683 29.8989 12.0152 30.0262 11.8247C30.1117 11.6893 30.1608 11.5323 30.1678 11.3706C30.1782 11.1466 30.0822 10.9317 29.911 10.7944C29.6969 10.6465 29.4423 10.574 29.1854 10.5894Z" fill="#9BADBA"/>
<path d="M35.7662 8.85608C36.0841 8.67443 36.4508 8.5838 36.8219 8.59516C37.2869 8.58737 37.7505 8.64562 38.1973 8.76796C38.534 8.86231 38.8536 9.00447 39.1452 9.18958L40 7.7191C39.8922 7.65689 39.7516 7.58432 39.5817 7.50311C39.3854 7.40769 39.1806 7.32848 38.9699 7.26638C38.6992 7.18758 38.4234 7.12525 38.1443 7.07976C37.7956 7.02355 37.4423 6.99695 37.0886 7.00028C35.8892 7.00028 34.9638 7.27387 34.3123 7.82105C33.6583 8.37719 33.2985 9.17894 33.3297 10.0103C33.3217 10.3315 33.3711 10.6517 33.4758 10.9573C33.5646 11.201 33.7002 11.4271 33.8758 11.6242C34.049 11.8138 34.2531 11.976 34.4804 12.1046C34.7142 12.2394 34.968 12.3742 35.2384 12.5089C35.4575 12.6143 35.6621 12.7163 35.8539 12.82C36.0322 12.9178 36.1988 13.0337 36.3507 13.1656C36.4873 13.2825 36.6006 13.4218 36.6849 13.5768C36.7692 13.7328 36.8113 13.9062 36.8073 14.0814C36.8153 14.2972 36.761 14.5111 36.6502 14.7C36.5468 14.8635 36.4065 15.0033 36.2393 15.1095C36.0578 15.2223 35.855 15.301 35.642 15.341C35.4016 15.3872 35.1567 15.4098 34.9114 15.4084C34.6429 15.4091 34.3749 15.3848 34.1114 15.3358C33.8746 15.295 33.6413 15.2372 33.4137 15.1631C33.2208 15.0942 33.0329 15.0133 32.8511 14.9211C32.6813 14.8382 32.5443 14.7656 32.4347 14.7034V14.7121L32 16.4124C32.2054 16.5223 32.4213 16.6137 32.6447 16.6854C32.936 16.7779 33.2339 16.8507 33.5361 16.9031C33.9223 16.9701 34.3142 17.0025 34.7068 16.9999C36.017 16.9999 37.0301 16.7263 37.7461 16.1791C38.4621 15.6319 38.8219 14.8296 38.8256 13.7721C38.8332 13.4351 38.7762 13.0997 38.6575 12.782C38.5496 12.5146 38.3912 12.2681 38.19 12.0545C37.9861 11.8404 37.749 11.6568 37.4868 11.5102C37.1957 11.3452 36.8958 11.1946 36.5881 11.0592C36.2712 10.9303 35.9719 10.7655 35.6968 10.5685C35.4461 10.3729 35.3102 10.0752 35.3315 9.76843C35.3315 9.33472 35.4758 9.03233 35.7662 8.85608Z" fill="#9BADBA"/>
<path d="M43.1914 9.5C44.1575 9.5 44.8695 9.74401 45.3203 10.2373C45.784 10.7636 46.027 11.4456 45.998 12.1426C45.9961 12.7738 45.8965 13.4013 45.7031 14.0029C45.5282 14.5825 45.2399 15.1228 44.8545 15.5928C44.4579 16.0618 43.9593 16.4366 43.3965 16.6904C42.7488 16.976 42.045 17.1152 41.3359 17.0977C41.1274 17.0977 40.9644 17.0905 40.8486 17.0801C40.7482 17.0719 40.6479 17.0571 40.5498 17.0342L40.1611 18.5928L38 19.5L40.3506 9.99023C40.5779 9.89545 40.8123 9.81822 41.0518 9.75977C41.3061 9.69742 41.5586 9.6453 41.8164 9.60547C42.0742 9.56564 42.318 9.54497 42.5547 9.52246C42.7914 9.49995 43.0038 9.5 43.1914 9.5ZM42.8896 11.0635C42.7139 11.0618 42.5378 11.0715 42.3633 11.0928C42.2339 11.1113 42.1058 11.1376 41.9795 11.1709L40.9277 15.4209C40.9834 15.4425 41.0427 15.4533 41.1025 15.4521H41.3076C41.7099 15.4602 42.1086 15.3743 42.4707 15.2012C42.8107 15.0364 43.1102 14.8002 43.3477 14.5088C43.5915 14.2069 43.776 13.8627 43.8926 13.4941C44.0206 13.1014 44.0869 12.6909 44.0879 12.2783C44.0882 12.127 44.0718 11.9752 44.04 11.8271C44.0103 11.6866 43.951 11.5535 43.8652 11.4375C43.772 11.3168 43.6468 11.2239 43.5039 11.168C43.3085 11.0927 43.0993 11.0568 42.8896 11.0635Z" fill="#9BADBA"/>
<path d="M50.4287 9.00233C51.1207 8.97226 51.7942 9.23386 52.292 9.72499C52.7639 10.2064 53 10.922 53 11.8715C52.9995 12.5067 52.9077 13.1384 52.7275 13.7465C52.5549 14.3428 52.2757 14.9018 51.9043 15.3949C51.5378 15.8816 51.0716 16.281 50.5381 16.5648C49.9466 16.8702 49.2895 17.0195 48.627 16.9984C47.7385 16.9984 47.0784 16.7373 46.6465 16.2162C46.2129 15.6963 45.9982 15.0067 46 14.142C46.004 13.5027 46.104 12.8677 46.2959 12.2592C46.4797 11.6629 46.7659 11.1045 47.1416 10.6107C47.5153 10.1248 47.9872 9.72578 48.5244 9.44081C49.1142 9.13745 49.7684 8.98685 50.4287 9.00233ZM49.0283 15.267H49.0342L49.0313 15.266L49.0283 15.267ZM49.9346 10.7123C49.6328 10.7105 49.3388 10.8124 49.1006 11.0014C48.8473 11.198 48.634 11.4431 48.4727 11.723C48.3055 12.0188 48.1787 12.3366 48.0957 12.6674C48.0085 12.9804 47.9624 13.3039 47.958 13.6293C47.9394 14.0401 48.0116 14.4503 48.1699 14.8285C48.3113 15.1184 48.5992 15.2654 49.0313 15.266C49.3344 15.2705 49.63 15.1701 49.8692 14.9799C50.1192 14.7789 50.3323 14.5339 50.499 14.2572C50.8372 13.6798 51.0207 13.0215 51.0303 12.349C51.0498 11.9385 50.9775 11.5288 50.8193 11.1508C50.676 10.8602 50.3841 10.7141 49.9346 10.7123Z" fill="#9BADBA"/>
<path d="M59.0238 8.896L58.9745 9.10425L59.0256 8.896H59.0238Z" fill="#9BADBA"/>
<path d="M59 9.0656L58.9812 9.15332L58.605 10.8574L58.5777 10.9843C58.3068 10.9526 58.0345 10.937 57.762 10.9377C57.4876 10.9379 57.2135 10.9572 56.9413 10.9955C56.6772 11.0273 56.4169 11.0899 56.165 11.1822L54.8809 17H53L54.6261 9.65914C55.6246 9.23667 56.6844 9.0135 57.7552 9.00027C58.1709 8.99727 58.5865 9.01908 59 9.0656Z" fill="#9BADBA"/>
<path d="M60.0651 13.9529C60.018 14.1519 59.9907 14.3548 59.9834 14.5589C59.9834 14.8705 60.0899 15.0782 60.3063 15.1804C60.5375 15.2868 60.7905 15.3407 61.0461 15.3379C61.3446 15.3371 61.6421 15.304 61.9332 15.2393C62.2359 15.173 62.5326 15.0827 62.8202 14.9692V14.99L62.3909 16.7213C62.168 16.7938 61.9404 16.8516 61.7096 16.8944C61.3188 16.9653 60.9221 17.0006 60.5245 17C59.6742 17 59.0414 16.8199 58.6263 16.4598C58.2111 16.0997 58.0024 15.5803 58 14.9017C58.0008 14.7326 58.0121 14.5638 58.0337 14.3961C58.0553 14.2074 58.0909 14.0206 58.1402 13.8369L58.5074 12.3514L58.7646 11.3127L58.8161 11.1066L59.2082 9.52077L59.563 8.09764L61.809 7L61.1614 9.53116H64L63.6044 11.124H60.7765L60.0651 13.9529Z" fill="#9BADBA"/>
<path d="M66.3182 10.7748C66.4446 10.7217 66.5786 10.687 66.7157 10.672C66.8408 10.657 66.9666 10.6492 67.0926 10.6486C67.5147 10.6429 67.9361 10.6816 68.3494 10.764C68.6547 10.8314 68.9516 10.93 69.235 11.058L70 9.49255C69.6355 9.33554 69.2529 9.22052 68.86 9.1499C68.3414 9.04651 67.8127 8.99633 67.2829 9.00021C66.1222 9.00021 65.2517 9.23526 64.6713 9.70536C64.0912 10.1729 63.7681 10.87 63.7952 11.5954C63.7907 11.8405 63.8302 12.0845 63.912 12.3168C63.9881 12.519 64.1082 12.7034 64.2643 12.8578C64.4372 13.0241 64.6362 13.1634 64.8541 13.2708C65.1219 13.4027 65.3989 13.5165 65.6832 13.6117C65.9413 13.7109 66.1542 13.792 66.3219 13.8642C66.4627 13.9192 66.5962 13.99 66.7195 14.0752C66.8032 14.1323 66.8722 14.2069 66.9211 14.2934C66.9616 14.3744 66.9816 14.4633 66.9795 14.5531C66.9733 14.7778 66.8446 14.983 66.6404 15.0941C66.4143 15.2456 66.0035 15.3202 65.4081 15.3177C64.9268 15.3281 64.4474 15.2554 63.993 15.1031C63.7838 15.0292 63.5992 14.9589 63.439 14.8903L63 16.609C63.1017 16.6469 63.2167 16.683 63.3392 16.719C63.6376 16.804 63.9416 16.8696 64.2493 16.9156C64.6521 16.974 65.0591 17.0018 65.4665 16.9986C66.0275 17.0115 66.587 16.9365 67.1227 16.7768C67.5362 16.6535 67.9203 16.4538 68.2533 16.1888C68.7821 15.7538 69.0885 15.1212 69.0937 14.4539C69.0991 14.1911 69.0629 13.929 68.9863 13.6766C68.9143 13.4678 68.7938 13.2773 68.6339 13.1193C68.4557 12.9453 68.252 12.797 68.0291 12.6793C67.7469 12.5336 67.4562 12.4036 67.1585 12.2897C66.8778 12.1923 66.6536 12.1094 66.484 12.03C66.3461 11.9713 66.2159 11.8975 66.0958 11.81C66.0178 11.7576 65.957 11.6851 65.9206 11.6008C65.8902 11.5199 65.8755 11.4343 65.8773 11.3483C65.873 11.2216 65.9188 11.098 66.0054 11.0021C66.0912 10.9055 66.1979 10.828 66.3182 10.7748Z" fill="#9BADBA"/>
<path d="M59.0203 8.9126L58.9781 9.0876L59.022 8.9126H59.0203Z" fill="#9BADBA"/>
<path d="M59.0212 8.9126L58.9772 9.0876L59.0229 8.9126H59.0212Z" fill="#9BADBA"/>
<path d="M21 10.5C21 16.299 16.299 21 10.5 21C4.70101 21 0 16.299 0 10.5C0 4.70101 4.70101 1.47566e-07 10.5 1.47566e-07C13.2849 -0.000466455 15.9559 1.10563 17.9251 3.07486C19.8944 5.0441 21.0005 7.71508 21 10.5Z" fill="#9BADBA"/>
<path d="M13 5.00168C12.9991 6.10624 12.1029 7.00092 10.9983 7C9.89376 6.99907 8.99908 6.10289 9 4.99833C9.00093 3.89376 9.8971 2.99908 11.0017 3C11.5322 3 12.041 3.211 12.4159 3.58648C12.7907 3.96196 13.0009 4.47111 13 5.00168Z" fill="#06090E"/>
<path d="M11.2651 8.00684C12.3581 8.00979 13.4501 8.06838 14.5366 8.18164C14.7875 8.2113 15.0425 8.24238 15.2915 8.29297C15.4204 8.31737 15.5493 8.34385 15.6782 8.37695C15.792 8.39794 15.9038 8.43001 16.0112 8.47168C16.4981 8.63569 16.9379 8.99455 16.9907 9.51758C17.0507 9.945 16.8141 10.3464 16.5923 10.6953C16.0613 11.5014 15.4386 12.2486 14.7349 12.9219C13.9169 13.7348 13.055 14.4915 12.1753 15.2363C12.7406 15.676 13.3133 16.1089 13.895 16.5293L13.8364 16.585L12.686 17.6846L12.3589 18C12.3462 18.0073 11.8688 17.6371 11.8267 17.6055L11.1919 17.1191C9.33962 15.7026 7.5164 14.232 5.92041 12.5625C5.28781 11.9013 4.65885 11.1941 4.22803 10.3916C4.12017 10.209 4.04656 10.0097 4.01025 9.80273C3.97758 9.55436 4.02863 9.30205 4.15674 9.08398C4.41123 8.66181 4.87148 8.48547 5.34229 8.37207C6.42018 8.11215 7.55255 8.08009 8.65771 8.03125C9.52481 7.99287 10.3962 7.99637 11.2651 8.00684ZM9.98486 10.0791C8.87889 10.0761 7.7733 10.1347 6.67432 10.2539C7.20781 10.8914 7.78617 11.4934 8.40479 12.0557C8.75986 12.3906 9.12356 12.7198 9.49561 13.042C9.68829 13.2106 9.88327 13.377 10.0796 13.541L10.3882 13.8027L10.4702 13.8701C10.4884 13.9015 10.5087 13.9015 10.5269 13.8701L10.6665 13.7529L10.6753 13.748C11.3861 13.1549 12.0867 12.5462 12.7593 11.9111C13.3243 11.391 13.8532 10.8358 14.3423 10.249C14.0369 10.2106 13.7296 10.186 13.4224 10.165C12.279 10.0796 11.1301 10.0669 9.98486 10.0791Z" fill="#06090E"/>
</svg>
