<svg width="70" height="21" viewBox="0 0 70 21" fill="none" xmlns="http://www.w3.org/2000/svg"><path d="M29.785 9.002c.55.026 1.082.219 1.53.557.454.365.71.937.684 1.532a2.44 2.44 0 01-.395 1.402c-.28.398-.652.718-1.082.93a5.578 5.578 0 01-1.62.512 11.74 11.74 0 01-2.01.158c-.001.18.03.358.091.526.065.159.17.297.305.398.17.122.36.208.563.253.29.067.587.098.884.093.4.003.799-.043 1.189-.136a4.62 4.62 0 00.787-.246l-.399 1.712a6.066 6.066 0 01-1.958.306c-.52.01-1.038-.071-1.532-.24a2.725 2.725 0 01-1.047-.659 2.614 2.614 0 01-.591-.998A4.088 4.088 0 0125 13.836c0-.62.104-1.237.308-1.82.195-.574.5-1.1.896-1.547a4.335 4.335 0 013.106-1.467h.474zm-.6 1.587c-.498.007-.98.185-1.37.507-.435.34-.737.883-.904 1.628a8.342 8.342 0 001.62-.127c.345-.058.68-.169.993-.329.202-.1.375-.253.502-.443a.927.927 0 00.142-.454.697.697 0 00-.257-.577 1.154 1.154 0 00-.726-.205zM35.766 8.856a2.007 2.007 0 011.056-.26 4.9 4.9 0 011.375.172c.337.094.657.236.948.422L40 7.72a6.3 6.3 0 00-.418-.217 3.962 3.962 0 00-.612-.237 6.96 6.96 0 00-.826-.186A6.264 6.264 0 0037.09 7c-1.2 0-2.125.274-2.777.821a2.74 2.74 0 00-.982 2.19c-.008.32.041.64.146.946.089.244.224.47.4.667.173.19.377.352.604.48.234.135.488.27.758.405.22.105.424.207.616.311.178.098.345.214.497.346.136.117.25.256.334.41.084.157.126.33.122.505.008.216-.046.43-.157.619a1.326 1.326 0 01-.41.41 1.74 1.74 0 01-.598.231 3.76 3.76 0 01-.73.067c-.27.001-.537-.023-.8-.072a4.993 4.993 0 01-.698-.173 4.853 4.853 0 01-.563-.242 7.632 7.632 0 01-.416-.218v.01l-.435 1.7c.205.11.421.2.645.272a6.594 6.594 0 002.062.314c1.31 0 2.323-.273 3.04-.82.715-.547 1.075-1.35 1.079-2.407a2.656 2.656 0 00-.169-.99 2.337 2.337 0 00-.467-.727 2.976 2.976 0 00-.703-.545 9.948 9.948 0 00-.899-.45 4.338 4.338 0 01-.891-.492.933.933 0 01-.366-.8c0-.433.145-.736.435-.912zM43.191 9.5c.966 0 1.678.244 2.13.737.463.527.706 1.209.677 1.906a6.14 6.14 0 01-.295 1.86 4.607 4.607 0 01-.849 1.59 4.134 4.134 0 01-1.457 1.097 4.813 4.813 0 01-2.061.408c-.209 0-.372-.008-.487-.018a2.05 2.05 0 01-.3-.046l-.388 1.559L38 19.5l2.35-9.51c.228-.095.462-.172.702-.23.254-.063.507-.115.764-.155.258-.04.502-.06.739-.083.236-.022.449-.022.636-.022zm-.301 1.563a4.026 4.026 0 00-.527.03c-.13.018-.257.045-.383.078l-1.052 4.25a.458.458 0 00.175.031h.205c.402.008.8-.078 1.163-.25.34-.166.64-.402.877-.693.244-.302.428-.646.545-1.015.128-.393.194-.803.195-1.216 0-.151-.016-.303-.048-.45a1.004 1.004 0 00-.175-.39.845.845 0 00-.361-.27 1.57 1.57 0 00-.614-.104zM50.429 9.002a2.498 2.498 0 011.863.723c.472.481.708 1.197.708 2.146 0 .636-.092 1.267-.273 1.875a5.095 5.095 0 01-.823 1.649 4.154 4.154 0 01-1.366 1.17 3.894 3.894 0 01-1.911.433c-.889 0-1.549-.26-1.98-.782-.434-.52-.649-1.21-.647-2.074.004-.64.104-1.274.296-1.883.184-.596.47-1.155.846-1.648a4.27 4.27 0 011.382-1.17 3.96 3.96 0 011.905-.439zm-1.4 6.265h.005l-.003-.001-.003.001zm.906-4.555a1.33 1.33 0 00-.834.29 2.481 2.481 0 00-.628.721 3.797 3.797 0 00-.377.944 3.775 3.775 0 00-.138.962c-.019.411.054.821.212 1.2.141.29.43.436.861.437.303.005.599-.096.838-.286.25-.201.463-.446.63-.723a3.887 3.887 0 00.531-1.908c.02-.41-.053-.82-.21-1.198-.144-.29-.436-.437-.885-.439zM59.024 8.896l-.05.208.052-.208h-.002z" fill="#9BADBA"/><path d="M59 9.066l-.019.087-.376 1.704-.027.127a6.866 6.866 0 00-.816-.046c-.274 0-.548.02-.82.057a3.457 3.457 0 00-.777.187L54.881 17H53l1.626-7.34a8.284 8.284 0 013.13-.66c.415-.003.83.02 1.244.066zM60.065 13.953a3.114 3.114 0 00-.082.606c0 .312.107.52.323.621.232.107.485.16.74.158.299 0 .596-.034.887-.099.303-.066.6-.156.887-.27v.021l-.43 1.731c-.222.073-.45.13-.68.173-.391.071-.788.107-1.185.106-.85 0-1.484-.18-1.899-.54-.415-.36-.624-.88-.626-1.558 0-.17.012-.338.034-.506.021-.189.057-.375.106-.56l.367-1.485.258-1.038.051-.206.392-1.586.355-1.423L61.809 7l-.648 2.531H64l-.396 1.593h-2.828l-.71 2.829zM66.318 10.775c.127-.053.26-.088.398-.103.125-.015.25-.023.377-.023.422-.006.843.033 1.256.115.306.067.603.166.886.294L70 9.493a5.213 5.213 0 00-1.14-.343A7.777 7.777 0 0067.283 9c-1.16 0-2.031.235-2.612.705a2.318 2.318 0 00-.876 1.89c-.004.245.035.49.117.722.076.202.196.386.352.54.173.167.372.306.59.414.268.132.545.245.83.34.257.1.47.181.638.253.14.055.274.126.397.211a.655.655 0 01.202.218c.04.081.06.17.058.26a.638.638 0 01-.339.541c-.226.152-.636.226-1.232.224-.481.01-.96-.063-1.415-.215a9.27 9.27 0 01-.554-.213L63 16.61c.102.038.217.074.34.11.298.085.602.15.91.197.402.058.81.086 1.216.083a5.369 5.369 0 001.657-.222 3.354 3.354 0 001.13-.588 2.27 2.27 0 00.84-1.735 2.499 2.499 0 00-.107-.777 1.448 1.448 0 00-.352-.558 2.61 2.61 0 00-.605-.44 8.583 8.583 0 00-.87-.39 7.437 7.437 0 01-.675-.259 1.968 1.968 0 01-.388-.22.484.484 0 01-.175-.21.677.677 0 01-.044-.252.491.491 0 01.128-.346.91.91 0 01.313-.227z" fill="#9BADBA"/><path d="M59.02 8.913l-.042.175.044-.175h-.002z" fill="#9BADBA"/><path d="M59.021 8.913l-.044.175.046-.175h-.002zM21 10.5C21 16.299 16.299 21 10.5 21S0 16.299 0 10.5 4.701 0 10.5 0A10.498 10.498 0 0121 10.5z" fill="#9BADBA"/><path d="M13 5.002a2 2 0 11-4-.004 2 2 0 014 .004zM11.265 8.007c1.093.003 2.185.061 3.272.175a9.254 9.254 0 011.141.195c.114.02.226.053.333.095.487.164.927.523.98 1.046.06.427-.177.828-.399 1.177a12.915 12.915 0 01-1.857 2.227c-.818.813-1.68 1.57-2.56 2.314.566.44 1.138.873 1.72 1.293l-.059.056-1.15 1.1-.327.315c-.013.007-.49-.363-.532-.395l-.635-.486c-1.852-1.416-3.676-2.887-5.272-4.556-.632-.662-1.261-1.369-1.692-2.171a1.753 1.753 0 01-.218-.59c-.032-.248.019-.5.147-.718.254-.422.714-.599 1.185-.712 1.078-.26 2.21-.292 3.316-.34a46.39 46.39 0 012.607-.025zm-1.28 2.072a29.953 29.953 0 00-3.31.175c.533.637 1.111 1.24 1.73 1.802.355.335.719.664 1.09.986.193.169.388.335.585.499l.308.262.082.067c.018.032.039.032.057 0l.14-.117.008-.005a45.326 45.326 0 002.084-1.837 17.413 17.413 0 001.583-1.662 16.264 16.264 0 00-.92-.084 40.395 40.395 0 00-3.437-.086z" fill="#06090E"/></svg>