<svg width="17" height="16" viewBox="0 0 17 16" fill="none" xmlns="http://www.w3.org/2000/svg"><path d="M9.374.001c.62-.002 1.24.004 1.86.018l.165.005.605.024c.905.04 1.522.175 2.063.372.561.203 1.034.479 1.506.923.433.4.767.883.98 1.417.21.51.353 1.091.396 1.942l.025.57.005.155c.015.584.022 1.167.02 1.75v1.645c.003.584-.004 1.168-.019 1.751l-.005.156c-.007.179-.015.356-.026.57-.042.85-.187 1.431-.396 1.94a3.893 3.893 0 01-.98 1.418 4.212 4.212 0 01-1.506.923c-.541.197-1.158.332-2.063.372-.226.01-.414.017-.605.024l-.165.004a70.8 70.8 0 01-1.86.019H7.627c-.62.003-1.24-.004-1.86-.018l-.165-.005a50.902 50.902 0 01-.605-.024c-.905-.04-1.522-.176-2.064-.372a4.192 4.192 0 01-1.505-.923 3.909 3.909 0 01-.981-1.417c-.21-.51-.353-1.09-.396-1.942l-.025-.57-.004-.155A59.52 59.52 0 010 8.823V7.177c-.002-.584.004-1.167.02-1.75l.005-.156c.007-.18.015-.357.026-.57C.093 3.85.236 3.27.446 2.76a3.89 3.89 0 01.982-1.416A4.195 4.195 0 012.933.42C3.475.223 4.09.088 4.997.048l.605-.024.165-.004C6.387.005 7.007 0 7.627 0l1.747.001zm-.874 4a4.485 4.485 0 00-1.645.288 4.283 4.283 0 00-1.399.863c-.4.372-.72.816-.937 1.305a3.797 3.797 0 000 3.087c.218.489.536.932.937 1.305.401.372.877.665 1.4.863A4.483 4.483 0 008.5 12a4.388 4.388 0 003.005-1.172A3.884 3.884 0 0012.75 8c0-1.06-.448-2.078-1.245-2.828A4.388 4.388 0 008.5 4zm0 1.6c.339-.006.675.052.99.17.315.117.601.293.843.517a2.4 2.4 0 01.565.783 2.28 2.28 0 010 1.857c-.13.294-.322.561-.564.784-.242.224-.528.4-.843.518a2.691 2.691 0 01-.99.17 2.633 2.633 0 01-1.803-.703A2.33 2.33 0 015.95 8c0-.637.269-1.247.747-1.697A2.633 2.633 0 018.5 5.6zm4.462-2.8c-.274.01-.533.12-.723.306a.97.97 0 00-.297.693.97.97 0 00.297.693c.19.186.45.296.723.306.282 0 .552-.105.752-.293a.971.971 0 00.31-.707.971.971 0 00-.31-.707c-.2-.187-.47-.293-.752-.293v.002z" fill="#D31F3C"/></svg>